<mxfile host="app.diagrams.net" modified="2023-05-29T21:13:21.398Z" agent="Mozilla/5.0 (Windows NT 10.0; Win64; x64) AppleWebKit/537.36 (KHTML, like Gecko) Chrome/113.0.0.0 Safari/537.36" etag="G6nt0CsrLemROttITg5J" version="21.3.3" type="device">
  <diagram id="ou-2T_0K5Y9kjUkwNd9F" name="Page-1">
    <mxGraphModel dx="1050" dy="541" grid="0" gridSize="10" guides="1" tooltips="1" connect="1" arrows="1" fold="1" page="1" pageScale="1" pageWidth="850" pageHeight="1100" math="0" shadow="0">
      <root>
        <mxCell id="0" />
        <mxCell id="1" parent="0" />
        <mxCell id="oDLqHF4-OEQmuZAPJv7p-27" value="" style="rounded=0;whiteSpace=wrap;html=1;fillColor=#FFFFCC;" parent="1" vertex="1">
          <mxGeometry x="40" y="372" width="490" height="124" as="geometry" />
        </mxCell>
        <mxCell id="oDLqHF4-OEQmuZAPJv7p-26" value="" style="rounded=0;whiteSpace=wrap;html=1;fillColor=#FFCCCC;" parent="1" vertex="1">
          <mxGeometry x="40" y="496" width="490" height="124" as="geometry" />
        </mxCell>
        <mxCell id="oDLqHF4-OEQmuZAPJv7p-25" value="" style="rounded=0;whiteSpace=wrap;html=1;fillColor=#CCFFCC;" parent="1" vertex="1">
          <mxGeometry x="40" y="124" width="490" height="248" as="geometry" />
        </mxCell>
        <mxCell id="hmZBuemIUY8-QvYxF4QN-3" style="edgeStyle=orthogonalEdgeStyle;rounded=0;orthogonalLoop=1;jettySize=auto;html=1;exitX=0.5;exitY=0;exitDx=0;exitDy=0;entryX=0.5;entryY=1;entryDx=0;entryDy=0;strokeColor=#009900;" parent="1" source="oDLqHF4-OEQmuZAPJv7p-7" target="9zJ--Hxn9T8rwOIMs4iG-5" edge="1">
          <mxGeometry relative="1" as="geometry" />
        </mxCell>
        <mxCell id="hmZBuemIUY8-QvYxF4QN-10" style="edgeStyle=orthogonalEdgeStyle;rounded=0;orthogonalLoop=1;jettySize=auto;html=1;exitX=0;exitY=0.5;exitDx=0;exitDy=0;entryX=0;entryY=0.75;entryDx=0;entryDy=0;strokeColor=#009900;" parent="1" source="oDLqHF4-OEQmuZAPJv7p-7" target="9zJ--Hxn9T8rwOIMs4iG-6" edge="1">
          <mxGeometry relative="1" as="geometry" />
        </mxCell>
        <mxCell id="oDLqHF4-OEQmuZAPJv7p-7" value="Aumento de velocidad." style="rounded=0;whiteSpace=wrap;html=1;fillColor=#FFFF99;" parent="1" vertex="1">
          <mxGeometry x="225" y="404" width="120" height="60" as="geometry" />
        </mxCell>
        <mxCell id="hmZBuemIUY8-QvYxF4QN-2" style="edgeStyle=orthogonalEdgeStyle;rounded=0;orthogonalLoop=1;jettySize=auto;html=1;exitX=0.5;exitY=0;exitDx=0;exitDy=0;entryX=0.5;entryY=1;entryDx=0;entryDy=0;strokeColor=#009900;" parent="1" source="oDLqHF4-OEQmuZAPJv7p-8" target="oDLqHF4-OEQmuZAPJv7p-7" edge="1">
          <mxGeometry relative="1" as="geometry" />
        </mxCell>
        <mxCell id="hmZBuemIUY8-QvYxF4QN-8" style="edgeStyle=orthogonalEdgeStyle;rounded=0;orthogonalLoop=1;jettySize=auto;html=1;exitX=1;exitY=0.5;exitDx=0;exitDy=0;entryX=1;entryY=0.5;entryDx=0;entryDy=0;strokeColor=#009900;" parent="1" source="oDLqHF4-OEQmuZAPJv7p-8" target="9zJ--Hxn9T8rwOIMs4iG-5" edge="1">
          <mxGeometry relative="1" as="geometry" />
        </mxCell>
        <mxCell id="hmZBuemIUY8-QvYxF4QN-9" style="edgeStyle=orthogonalEdgeStyle;rounded=0;orthogonalLoop=1;jettySize=auto;html=1;exitX=0;exitY=0.5;exitDx=0;exitDy=0;entryX=0;entryY=0.25;entryDx=0;entryDy=0;strokeColor=#009900;" parent="1" source="oDLqHF4-OEQmuZAPJv7p-8" target="9zJ--Hxn9T8rwOIMs4iG-6" edge="1">
          <mxGeometry relative="1" as="geometry">
            <Array as="points">
              <mxPoint x="150" y="556" />
              <mxPoint x="150" y="176" />
            </Array>
          </mxGeometry>
        </mxCell>
        <mxCell id="oDLqHF4-OEQmuZAPJv7p-8" value="Confunde con velocidad." style="rounded=0;whiteSpace=wrap;html=1;fillColor=#FF9999;" parent="1" vertex="1">
          <mxGeometry x="225" y="526" width="120" height="60" as="geometry" />
        </mxCell>
        <mxCell id="oDLqHF4-OEQmuZAPJv7p-28" value="2" style="rounded=0;whiteSpace=wrap;html=1;strokeColor=#330000;fillColor=#E6E6E6;" parent="1" vertex="1">
          <mxGeometry x="290" y="485" width="20" height="20" as="geometry" />
        </mxCell>
        <mxCell id="oDLqHF4-OEQmuZAPJv7p-30" value="2" style="rounded=0;whiteSpace=wrap;html=1;strokeColor=#330000;fillColor=#E6E6E6;" parent="1" vertex="1">
          <mxGeometry x="368" y="420" width="20" height="20" as="geometry" />
        </mxCell>
        <mxCell id="oDLqHF4-OEQmuZAPJv7p-37" value="&lt;span style=&quot;&quot; lang=&quot;ES&quot;&gt;&lt;b&gt;&lt;font color=&quot;#990000&quot;&gt;CADVA1&lt;/font&gt;&lt;/b&gt;&lt;/span&gt;" style="text;whiteSpace=wrap;html=1;" parent="1" vertex="1">
          <mxGeometry x="168.00000000000003" y="564" width="41.65" height="29.18" as="geometry" />
        </mxCell>
        <mxCell id="oDLqHF4-OEQmuZAPJv7p-38" value="" style="shape=flexArrow;endArrow=classic;html=1;rounded=0;strokeColor=#00CC00;fontColor=#006600;fillColor=#FFFF33;" parent="1" edge="1">
          <mxGeometry width="50" height="50" relative="1" as="geometry">
            <mxPoint x="558" y="620" as="sourcePoint" />
            <mxPoint x="558" y="123" as="targetPoint" />
          </mxGeometry>
        </mxCell>
        <mxCell id="oDLqHF4-OEQmuZAPJv7p-39" value="CORRECCIÓN DE LAS RESPUESTAS" style="rounded=0;whiteSpace=wrap;html=1;rotation=0;" parent="1" vertex="1">
          <mxGeometry x="571" y="340" width="90" height="60" as="geometry" />
        </mxCell>
        <mxCell id="hmZBuemIUY8-QvYxF4QN-7" style="edgeStyle=orthogonalEdgeStyle;rounded=0;orthogonalLoop=1;jettySize=auto;html=1;exitX=0.5;exitY=0;exitDx=0;exitDy=0;entryX=0.5;entryY=1;entryDx=0;entryDy=0;strokeColor=#009900;" parent="1" source="9zJ--Hxn9T8rwOIMs4iG-5" target="9zJ--Hxn9T8rwOIMs4iG-6" edge="1">
          <mxGeometry relative="1" as="geometry" />
        </mxCell>
        <mxCell id="9zJ--Hxn9T8rwOIMs4iG-5" value="Cambio de velocidad. (Contempla aumento y disminución)." style="rounded=0;whiteSpace=wrap;html=1;fillColor=#99FF99;" parent="1" vertex="1">
          <mxGeometry x="225" y="272" width="120" height="60" as="geometry" />
        </mxCell>
        <mxCell id="9zJ--Hxn9T8rwOIMs4iG-6" value="Ritmo de cambio de velocidad. Δv / Δt." style="rounded=0;whiteSpace=wrap;html=1;fillColor=#99FF99;" parent="1" vertex="1">
          <mxGeometry x="225" y="161" width="120" height="60" as="geometry" />
        </mxCell>
        <mxCell id="9zJ--Hxn9T8rwOIMs4iG-13" value="6" style="rounded=0;whiteSpace=wrap;html=1;strokeColor=#330000;fillColor=#E6E6E6;" parent="1" vertex="1">
          <mxGeometry x="290" y="363" width="20" height="20" as="geometry" />
        </mxCell>
        <mxCell id="9zJ--Hxn9T8rwOIMs4iG-16" value="2" style="rounded=0;whiteSpace=wrap;html=1;strokeColor=#330000;fillColor=#E6E6E6;" parent="1" vertex="1">
          <mxGeometry x="183" y="456" width="20" height="20" as="geometry" />
        </mxCell>
        <mxCell id="hmZBuemIUY8-QvYxF4QN-11" value="6" style="rounded=0;whiteSpace=wrap;html=1;strokeColor=#330000;fillColor=#E6E6E6;" parent="1" vertex="1">
          <mxGeometry x="124" y="363" width="20" height="20" as="geometry" />
        </mxCell>
        <mxCell id="hmZBuemIUY8-QvYxF4QN-12" style="edgeStyle=orthogonalEdgeStyle;rounded=0;orthogonalLoop=1;jettySize=auto;html=1;exitX=0;exitY=0.75;exitDx=0;exitDy=0;entryX=0.25;entryY=1;entryDx=0;entryDy=0;strokeColor=#990000;" parent="1" source="oDLqHF4-OEQmuZAPJv7p-7" target="oDLqHF4-OEQmuZAPJv7p-7" edge="1">
          <mxGeometry relative="1" as="geometry">
            <Array as="points">
              <mxPoint x="206" y="449" />
              <mxPoint x="206" y="480" />
              <mxPoint x="255" y="480" />
            </Array>
          </mxGeometry>
        </mxCell>
        <mxCell id="hmZBuemIUY8-QvYxF4QN-13" style="edgeStyle=orthogonalEdgeStyle;rounded=0;orthogonalLoop=1;jettySize=auto;html=1;exitX=0.75;exitY=0;exitDx=0;exitDy=0;entryX=1;entryY=0.25;entryDx=0;entryDy=0;strokeColor=#009900;" parent="1" source="9zJ--Hxn9T8rwOIMs4iG-5" target="9zJ--Hxn9T8rwOIMs4iG-5" edge="1">
          <mxGeometry relative="1" as="geometry">
            <Array as="points">
              <mxPoint x="315" y="255" />
              <mxPoint x="365" y="255" />
              <mxPoint x="365" y="287" />
            </Array>
          </mxGeometry>
        </mxCell>
      </root>
    </mxGraphModel>
  </diagram>
</mxfile>
